<svg width="365" height="82" viewBox="0 0 365 82" fill="none" xmlns="http://www.w3.org/2000/svg">
<path d="M111.776 38.536C112.725 38.536 113.573 38.376 114.32 38.056C115.067 37.736 115.696 37.288 116.208 36.712C116.731 36.136 117.125 35.448 117.392 34.648C117.669 33.848 117.808 32.968 117.808 32.008V18.072H120.896V32.008C120.896 33.3307 120.683 34.5573 120.256 35.688C119.84 36.8187 119.237 37.8 118.448 38.632C117.669 39.4533 116.715 40.0987 115.584 40.568C114.453 41.0373 113.184 41.272 111.776 41.272C110.368 41.272 109.099 41.0373 107.968 40.568C106.837 40.0987 105.877 39.4533 105.088 38.632C104.299 37.8 103.691 36.8187 103.264 35.688C102.848 34.5573 102.64 33.3307 102.64 32.008V18.072H105.728V31.992C105.728 32.952 105.861 33.832 106.128 34.632C106.405 35.432 106.8 36.12 107.312 36.696C107.835 37.272 108.469 37.7253 109.216 38.056C109.973 38.376 110.827 38.536 111.776 38.536ZM130.42 41.256C129.14 41.256 128.153 40.8987 127.46 40.184C126.777 39.4693 126.436 38.44 126.436 37.096V27.176H124.484C124.313 27.176 124.169 27.128 124.052 27.032C123.934 26.9253 123.876 26.7653 123.876 26.552V25.416L126.532 25.08L127.188 20.072C127.22 19.912 127.289 19.784 127.396 19.688C127.513 19.5813 127.662 19.528 127.844 19.528H129.284V25.112H136.916L137.572 20.072C137.604 19.912 137.673 19.784 137.78 19.688C137.897 19.5813 138.046 19.528 138.228 19.528H139.668V25.112H144.356V27.176H139.668V36.904C139.668 37.5867 139.833 38.0933 140.164 38.424C140.505 38.7547 140.932 38.92 141.444 38.92C141.742 38.92 141.998 38.8827 142.212 38.808C142.436 38.7227 142.628 38.632 142.788 38.536C142.948 38.44 143.081 38.3547 143.188 38.28C143.305 38.1947 143.406 38.152 143.492 38.152C143.652 38.152 143.785 38.2427 143.892 38.424L144.74 39.784C144.238 40.2427 143.641 40.6053 142.948 40.872C142.254 41.128 141.54 41.256 140.804 41.256C139.534 41.256 138.553 40.8987 137.86 40.184C137.166 39.4693 136.82 38.44 136.82 37.096V27.176H129.284V36.904C129.284 37.5867 129.449 38.0933 129.78 38.424C130.11 38.7547 130.537 38.92 131.06 38.92C131.358 38.92 131.614 38.8827 131.828 38.808C132.052 38.7227 132.244 38.632 132.404 38.536C132.564 38.44 132.697 38.3547 132.804 38.28C132.921 38.1947 133.022 38.152 133.108 38.152C133.257 38.152 133.39 38.2427 133.508 38.424L134.34 39.784C133.849 40.2427 133.257 40.6053 132.564 40.872C131.87 41.128 131.156 41.256 130.42 41.256ZM150.151 26.952C150.845 26.216 151.613 25.6293 152.455 25.192C153.298 24.7547 154.269 24.536 155.367 24.536C156.253 24.536 157.031 24.6853 157.703 24.984C158.386 25.272 158.951 25.688 159.399 26.232C159.858 26.7653 160.205 27.4107 160.439 28.168C160.674 28.9253 160.791 29.7627 160.791 30.68V41H157.927V30.68C157.927 29.4533 157.645 28.504 157.079 27.832C156.525 27.1493 155.677 26.808 154.535 26.808C153.693 26.808 152.903 27.0107 152.167 27.416C151.442 27.8213 150.77 28.3707 150.151 29.064V41H147.287V17.432H150.151V26.952ZM173.915 33.704C172.603 33.7467 171.483 33.8533 170.555 34.024C169.638 34.184 168.886 34.3973 168.299 34.664C167.723 34.9307 167.302 35.2453 167.035 35.608C166.779 35.9707 166.651 36.376 166.651 36.824C166.651 37.2507 166.72 37.6187 166.859 37.928C166.998 38.2373 167.184 38.4933 167.419 38.696C167.664 38.888 167.947 39.032 168.267 39.128C168.598 39.2133 168.95 39.256 169.323 39.256C169.824 39.256 170.283 39.208 170.699 39.112C171.115 39.0053 171.504 38.856 171.867 38.664C172.24 38.472 172.592 38.2427 172.923 37.976C173.264 37.7093 173.595 37.4053 173.915 37.064V33.704ZM164.715 27.08C165.611 26.216 166.576 25.5707 167.611 25.144C168.646 24.7173 169.792 24.504 171.051 24.504C171.958 24.504 172.763 24.6533 173.467 24.952C174.171 25.2507 174.763 25.6667 175.243 26.2C175.723 26.7333 176.086 27.3787 176.331 28.136C176.576 28.8933 176.699 29.7253 176.699 30.632V41H175.435C175.158 41 174.944 40.9573 174.795 40.872C174.646 40.776 174.528 40.5947 174.443 40.328L174.123 38.792C173.696 39.1867 173.28 39.5387 172.875 39.848C172.47 40.1467 172.043 40.4027 171.595 40.616C171.147 40.8187 170.667 40.9733 170.155 41.08C169.654 41.1973 169.094 41.256 168.475 41.256C167.846 41.256 167.254 41.1707 166.699 41C166.144 40.8187 165.659 40.552 165.243 40.2C164.838 39.848 164.512 39.4053 164.267 38.872C164.032 38.328 163.915 37.688 163.915 36.952C163.915 36.312 164.091 35.6987 164.443 35.112C164.795 34.5147 165.366 33.9867 166.155 33.528C166.944 33.0693 167.974 32.696 169.243 32.408C170.512 32.1093 172.07 31.9387 173.915 31.896V30.632C173.915 29.3733 173.643 28.424 173.099 27.784C172.555 27.1333 171.76 26.808 170.715 26.808C170.011 26.808 169.419 26.8987 168.939 27.08C168.47 27.2507 168.059 27.448 167.707 27.672C167.366 27.8853 167.067 28.0827 166.811 28.264C166.566 28.4347 166.32 28.52 166.075 28.52C165.883 28.52 165.718 28.472 165.579 28.376C165.44 28.2693 165.323 28.1413 165.227 27.992L164.715 27.08ZM183.725 27.144C184.077 26.7493 184.451 26.392 184.845 26.072C185.24 25.752 185.656 25.48 186.093 25.256C186.541 25.0213 187.011 24.8453 187.501 24.728C188.003 24.6 188.541 24.536 189.117 24.536C190.003 24.536 190.781 24.6853 191.453 24.984C192.136 25.272 192.701 25.688 193.149 26.232C193.608 26.7653 193.955 27.4107 194.189 28.168C194.424 28.9253 194.541 29.7627 194.541 30.68V41H191.677V30.68C191.677 29.4533 191.395 28.504 190.829 27.832C190.275 27.1493 189.427 26.808 188.285 26.808C187.443 26.808 186.653 27.0107 185.917 27.416C185.192 27.8213 184.52 28.3707 183.901 29.064V41H181.037V24.792H182.749C183.155 24.792 183.405 24.9893 183.501 25.384L183.725 27.144ZM210.845 20.6V28.616H220.269V31.144H210.845V41H207.741V18.072H221.869V20.6H210.845ZM230.588 24.536C231.772 24.536 232.839 24.7333 233.788 25.128C234.737 25.5227 235.548 26.0827 236.22 26.808C236.892 27.5333 237.404 28.4133 237.756 29.448C238.119 30.472 238.3 31.6187 238.3 32.888C238.3 34.168 238.119 35.32 237.756 36.344C237.404 37.368 236.892 38.2427 236.22 38.968C235.548 39.6933 234.737 40.2533 233.788 40.648C232.839 41.032 231.772 41.224 230.588 41.224C229.393 41.224 228.316 41.032 227.356 40.648C226.407 40.2533 225.596 39.6933 224.924 38.968C224.252 38.2427 223.735 37.368 223.372 36.344C223.02 35.32 222.844 34.168 222.844 32.888C222.844 31.6187 223.02 30.472 223.372 29.448C223.735 28.4133 224.252 27.5333 224.924 26.808C225.596 26.0827 226.407 25.5227 227.356 25.128C228.316 24.7333 229.393 24.536 230.588 24.536ZM230.588 39C232.188 39 233.383 38.4667 234.172 37.4C234.961 36.3227 235.356 34.824 235.356 32.904C235.356 30.9733 234.961 29.4693 234.172 28.392C233.383 27.3147 232.188 26.776 230.588 26.776C229.777 26.776 229.068 26.9147 228.46 27.192C227.863 27.4693 227.361 27.8693 226.956 28.392C226.561 28.9147 226.263 29.56 226.06 30.328C225.868 31.0853 225.772 31.944 225.772 32.904C225.772 34.824 226.167 36.3227 226.956 37.4C227.756 38.4667 228.967 39 230.588 39ZM255.24 24.792V41H253.544C253.139 41 252.883 40.8027 252.776 40.408L252.552 38.664C251.848 39.4427 251.059 40.072 250.184 40.552C249.31 41.0213 248.307 41.256 247.176 41.256C246.291 41.256 245.507 41.112 244.824 40.824C244.152 40.5253 243.587 40.1093 243.128 39.576C242.67 39.0427 242.323 38.3973 242.088 37.64C241.864 36.8827 241.752 36.0453 241.752 35.128V24.792H244.6V35.128C244.6 36.3547 244.878 37.304 245.432 37.976C245.998 38.648 246.856 38.984 248.008 38.984C248.851 38.984 249.635 38.7867 250.36 38.392C251.096 37.9867 251.774 37.432 252.392 36.728V24.792H255.24ZM262.444 27.144C262.796 26.7493 263.169 26.392 263.564 26.072C263.959 25.752 264.375 25.48 264.812 25.256C265.26 25.0213 265.729 24.8453 266.22 24.728C266.721 24.6 267.26 24.536 267.836 24.536C268.721 24.536 269.5 24.6853 270.172 24.984C270.855 25.272 271.42 25.688 271.868 26.232C272.327 26.7653 272.673 27.4107 272.908 28.168C273.143 28.9253 273.26 29.7627 273.26 30.68V41H270.396V30.68C270.396 29.4533 270.113 28.504 269.548 27.832C268.993 27.1493 268.145 26.808 267.004 26.808C266.161 26.808 265.372 27.0107 264.636 27.416C263.911 27.8213 263.239 28.3707 262.62 29.064V41H259.756V24.792H261.468C261.873 24.792 262.124 24.9893 262.22 25.384L262.444 27.144ZM288.16 28.648C287.626 27.9333 287.05 27.4373 286.432 27.16C285.813 26.872 285.12 26.728 284.352 26.728C282.848 26.728 281.69 27.2667 280.88 28.344C280.069 29.4213 279.664 30.9573 279.664 32.952C279.664 34.008 279.754 34.9147 279.936 35.672C280.117 36.4187 280.384 37.0373 280.736 37.528C281.088 38.008 281.52 38.36 282.032 38.584C282.544 38.808 283.125 38.92 283.776 38.92C284.714 38.92 285.53 38.7067 286.224 38.28C286.928 37.8533 287.573 37.2507 288.16 36.472V28.648ZM291.008 17.432V41H289.312C288.906 41 288.65 40.8027 288.544 40.408L288.288 38.44C287.594 39.272 286.805 39.944 285.92 40.456C285.034 40.968 284.01 41.224 282.848 41.224C281.92 41.224 281.077 41.048 280.32 40.696C279.562 40.3333 278.917 39.8053 278.384 39.112C277.85 38.4187 277.44 37.5547 277.152 36.52C276.864 35.4853 276.72 34.296 276.72 32.952C276.72 31.7573 276.88 30.648 277.2 29.624C277.52 28.5893 277.978 27.6933 278.576 26.936C279.173 26.1787 279.904 25.5867 280.768 25.16C281.642 24.7227 282.624 24.504 283.712 24.504C284.704 24.504 285.552 24.6747 286.256 25.016C286.97 25.3467 287.605 25.8107 288.16 26.408V17.432H291.008ZM304.29 33.704C302.978 33.7467 301.858 33.8533 300.93 34.024C300.013 34.184 299.261 34.3973 298.674 34.664C298.098 34.9307 297.677 35.2453 297.41 35.608C297.154 35.9707 297.026 36.376 297.026 36.824C297.026 37.2507 297.095 37.6187 297.234 37.928C297.373 38.2373 297.559 38.4933 297.794 38.696C298.039 38.888 298.322 39.032 298.642 39.128C298.973 39.2133 299.325 39.256 299.698 39.256C300.199 39.256 300.658 39.208 301.074 39.112C301.49 39.0053 301.879 38.856 302.242 38.664C302.615 38.472 302.967 38.2427 303.298 37.976C303.639 37.7093 303.97 37.4053 304.29 37.064V33.704ZM295.09 27.08C295.986 26.216 296.951 25.5707 297.986 25.144C299.021 24.7173 300.167 24.504 301.426 24.504C302.333 24.504 303.138 24.6533 303.842 24.952C304.546 25.2507 305.138 25.6667 305.618 26.2C306.098 26.7333 306.461 27.3787 306.706 28.136C306.951 28.8933 307.074 29.7253 307.074 30.632V41H305.81C305.533 41 305.319 40.9573 305.17 40.872C305.021 40.776 304.903 40.5947 304.818 40.328L304.498 38.792C304.071 39.1867 303.655 39.5387 303.25 39.848C302.845 40.1467 302.418 40.4027 301.97 40.616C301.522 40.8187 301.042 40.9733 300.53 41.08C300.029 41.1973 299.469 41.256 298.85 41.256C298.221 41.256 297.629 41.1707 297.074 41C296.519 40.8187 296.034 40.552 295.618 40.2C295.213 39.848 294.887 39.4053 294.642 38.872C294.407 38.328 294.29 37.688 294.29 36.952C294.29 36.312 294.466 35.6987 294.818 35.112C295.17 34.5147 295.741 33.9867 296.53 33.528C297.319 33.0693 298.349 32.696 299.618 32.408C300.887 32.1093 302.445 31.9387 304.29 31.896V30.632C304.29 29.3733 304.018 28.424 303.474 27.784C302.93 27.1333 302.135 26.808 301.09 26.808C300.386 26.808 299.794 26.8987 299.314 27.08C298.845 27.2507 298.434 27.448 298.082 27.672C297.741 27.8853 297.442 28.0827 297.186 28.264C296.941 28.4347 296.695 28.52 296.45 28.52C296.258 28.52 296.093 28.472 295.954 28.376C295.815 28.2693 295.698 28.1413 295.602 27.992L295.09 27.08ZM326.234 41H323.386V27.176H315.034V36.904C315.034 37.5867 315.199 38.0933 315.53 38.424C315.86 38.7547 316.287 38.92 316.81 38.92C317.108 38.92 317.364 38.8827 317.578 38.808C317.802 38.7227 317.994 38.632 318.154 38.536C318.314 38.44 318.447 38.3547 318.554 38.28C318.671 38.1947 318.772 38.152 318.858 38.152C319.007 38.152 319.14 38.2427 319.258 38.424L320.09 39.784C319.599 40.2427 319.007 40.6053 318.314 40.872C317.62 41.128 316.906 41.256 316.17 41.256C314.89 41.256 313.903 40.8987 313.21 40.184C312.527 39.4693 312.186 38.44 312.186 37.096V27.176H310.234C310.063 27.176 309.919 27.128 309.802 27.032C309.684 26.9253 309.626 26.7653 309.626 26.552V25.416L312.282 25.064L312.938 20.072C312.97 19.912 313.039 19.784 313.146 19.688C313.263 19.5813 313.412 19.528 313.594 19.528H315.034V25.112H326.234V41ZM326.938 19.592C326.938 19.8693 326.879 20.1307 326.762 20.376C326.655 20.6107 326.506 20.8187 326.314 21C326.132 21.1813 325.919 21.3253 325.674 21.432C325.428 21.5387 325.167 21.592 324.89 21.592C324.612 21.592 324.351 21.5387 324.106 21.432C323.871 21.3253 323.663 21.1813 323.482 21C323.3 20.8187 323.156 20.6107 323.05 20.376C322.943 20.1307 322.89 19.8693 322.89 19.592C322.89 19.3147 322.943 19.0533 323.05 18.808C323.156 18.552 323.3 18.3333 323.482 18.152C323.663 17.96 323.871 17.8107 324.106 17.704C324.351 17.5973 324.612 17.544 324.89 17.544C325.167 17.544 325.428 17.5973 325.674 17.704C325.919 17.8107 326.132 17.96 326.314 18.152C326.506 18.3333 326.655 18.552 326.762 18.808C326.879 19.0533 326.938 19.3147 326.938 19.592ZM337.744 24.536C338.928 24.536 339.995 24.7333 340.944 25.128C341.894 25.5227 342.704 26.0827 343.376 26.808C344.048 27.5333 344.56 28.4133 344.912 29.448C345.275 30.472 345.456 31.6187 345.456 32.888C345.456 34.168 345.275 35.32 344.912 36.344C344.56 37.368 344.048 38.2427 343.376 38.968C342.704 39.6933 341.894 40.2533 340.944 40.648C339.995 41.032 338.928 41.224 337.744 41.224C336.55 41.224 335.472 41.032 334.512 40.648C333.563 40.2533 332.752 39.6933 332.08 38.968C331.408 38.2427 330.891 37.368 330.528 36.344C330.176 35.32 330 34.168 330 32.888C330 31.6187 330.176 30.472 330.528 29.448C330.891 28.4133 331.408 27.5333 332.08 26.808C332.752 26.0827 333.563 25.5227 334.512 25.128C335.472 24.7333 336.55 24.536 337.744 24.536ZM337.744 39C339.344 39 340.539 38.4667 341.328 37.4C342.118 36.3227 342.512 34.824 342.512 32.904C342.512 30.9733 342.118 29.4693 341.328 28.392C340.539 27.3147 339.344 26.776 337.744 26.776C336.934 26.776 336.224 26.9147 335.616 27.192C335.019 27.4693 334.518 27.8693 334.112 28.392C333.718 28.9147 333.419 29.56 333.216 30.328C333.024 31.0853 332.928 31.944 332.928 32.904C332.928 34.824 333.323 36.3227 334.112 37.4C334.912 38.4667 336.123 39 337.744 39ZM351.757 27.144C352.109 26.7493 352.482 26.392 352.877 26.072C353.271 25.752 353.687 25.48 354.125 25.256C354.573 25.0213 355.042 24.8453 355.533 24.728C356.034 24.6 356.573 24.536 357.149 24.536C358.034 24.536 358.813 24.6853 359.485 24.984C360.167 25.272 360.733 25.688 361.181 26.232C361.639 26.7653 361.986 27.4107 362.221 28.168C362.455 28.9253 362.573 29.7627 362.573 30.68V41H359.709V30.68C359.709 29.4533 359.426 28.504 358.861 27.832C358.306 27.1493 357.458 26.808 356.317 26.808C355.474 26.808 354.685 27.0107 353.949 27.416C353.223 27.8213 352.551 28.3707 351.933 29.064V41H349.069V24.792H350.781C351.186 24.792 351.437 24.9893 351.533 25.384L351.757 27.144Z" fill="white"/>
<path d="M108.814 60.753V66H107.896V60.753L103.18 53.265H103.99C104.074 53.265 104.143 53.286 104.197 53.328C104.251 53.364 104.296 53.418 104.332 53.49L107.977 59.34C108.055 59.478 108.127 59.613 108.193 59.745C108.259 59.871 108.316 59.997 108.364 60.123C108.412 59.997 108.466 59.871 108.526 59.745C108.586 59.613 108.655 59.478 108.733 59.34L112.378 53.49C112.408 53.424 112.45 53.37 112.504 53.328C112.564 53.286 112.636 53.265 112.72 53.265H113.53L108.814 60.753ZM117.297 56.901C117.939 56.901 118.512 57.012 119.016 57.234C119.526 57.45 119.955 57.759 120.303 58.161C120.651 58.563 120.915 59.049 121.095 59.619C121.281 60.183 121.374 60.816 121.374 61.518C121.374 62.22 121.281 62.853 121.095 63.417C120.915 63.981 120.651 64.464 120.303 64.866C119.955 65.268 119.526 65.577 119.016 65.793C118.512 66.009 117.939 66.117 117.297 66.117C116.655 66.117 116.079 66.009 115.569 65.793C115.065 65.577 114.636 65.268 114.282 64.866C113.934 64.464 113.667 63.981 113.481 63.417C113.301 62.853 113.211 62.22 113.211 61.518C113.211 60.816 113.301 60.183 113.481 59.619C113.667 59.049 113.934 58.563 114.282 58.161C114.636 57.759 115.065 57.45 115.569 57.234C116.079 57.012 116.655 56.901 117.297 56.901ZM117.297 65.442C117.831 65.442 118.296 65.352 118.692 65.172C119.094 64.986 119.427 64.722 119.691 64.38C119.961 64.038 120.162 63.627 120.294 63.147C120.426 62.661 120.492 62.118 120.492 61.518C120.492 60.924 120.426 60.384 120.294 59.898C120.162 59.412 119.961 58.998 119.691 58.656C119.427 58.308 119.094 58.041 118.692 57.855C118.296 57.669 117.831 57.576 117.297 57.576C116.763 57.576 116.295 57.669 115.893 57.855C115.497 58.041 115.164 58.308 114.894 58.656C114.63 58.998 114.429 59.412 114.291 59.898C114.159 60.384 114.093 60.924 114.093 61.518C114.093 62.118 114.159 62.661 114.291 63.147C114.429 63.627 114.63 64.038 114.894 64.38C115.164 64.722 115.497 64.986 115.893 65.172C116.295 65.352 116.763 65.442 117.297 65.442ZM131.204 57.045V66H130.727C130.577 66 130.49 65.922 130.466 65.766L130.385 64.434C129.971 64.95 129.491 65.364 128.945 65.676C128.405 65.988 127.802 66.144 127.136 66.144C126.638 66.144 126.203 66.066 125.831 65.91C125.459 65.754 125.15 65.529 124.904 65.235C124.658 64.941 124.472 64.587 124.346 64.173C124.22 63.759 124.157 63.291 124.157 62.769V57.045H125.021V62.769C125.021 63.609 125.213 64.269 125.597 64.749C125.981 65.223 126.566 65.46 127.352 65.46C127.934 65.46 128.477 65.313 128.981 65.019C129.491 64.719 129.944 64.305 130.34 63.777V57.045H131.204ZM135.439 59.205C135.577 58.839 135.733 58.515 135.907 58.233C136.087 57.945 136.291 57.702 136.519 57.504C136.753 57.306 137.011 57.156 137.293 57.054C137.581 56.946 137.899 56.892 138.247 56.892C138.433 56.892 138.616 56.91 138.796 56.946C138.976 56.976 139.135 57.033 139.273 57.117L139.201 57.711C139.171 57.807 139.114 57.855 139.03 57.855C138.958 57.855 138.847 57.834 138.697 57.792C138.553 57.75 138.361 57.729 138.121 57.729C137.773 57.729 137.464 57.783 137.194 57.891C136.93 57.993 136.69 58.149 136.474 58.359C136.264 58.569 136.078 58.83 135.916 59.142C135.76 59.448 135.616 59.802 135.484 60.204V66H134.62V57.045H135.079C135.181 57.045 135.253 57.066 135.295 57.108C135.337 57.15 135.364 57.222 135.376 57.324L135.439 59.205ZM151.343 58.152C151.295 58.236 151.226 58.278 151.136 58.278C151.07 58.278 150.986 58.242 150.884 58.17C150.782 58.092 150.644 58.008 150.47 57.918C150.302 57.822 150.092 57.738 149.84 57.666C149.588 57.588 149.282 57.549 148.922 57.549C148.598 57.549 148.301 57.597 148.031 57.693C147.767 57.783 147.539 57.906 147.347 58.062C147.161 58.218 147.017 58.401 146.915 58.611C146.813 58.815 146.762 59.031 146.762 59.259C146.762 59.541 146.834 59.775 146.978 59.961C147.122 60.147 147.308 60.306 147.536 60.438C147.77 60.57 148.037 60.684 148.337 60.78C148.637 60.876 148.94 60.972 149.246 61.068C149.558 61.164 149.864 61.272 150.164 61.392C150.464 61.506 150.728 61.65 150.956 61.824C151.19 61.998 151.379 62.211 151.523 62.463C151.667 62.715 151.739 63.021 151.739 63.381C151.739 63.771 151.67 64.134 151.532 64.47C151.394 64.806 151.19 65.097 150.92 65.343C150.656 65.589 150.329 65.784 149.939 65.928C149.549 66.072 149.102 66.144 148.598 66.144C147.968 66.144 147.425 66.045 146.969 65.847C146.513 65.643 146.105 65.379 145.745 65.055L145.943 64.749C145.973 64.701 146.006 64.665 146.042 64.641C146.084 64.617 146.138 64.605 146.204 64.605C146.282 64.605 146.375 64.653 146.483 64.749C146.597 64.845 146.747 64.95 146.933 65.064C147.119 65.172 147.347 65.274 147.617 65.37C147.893 65.466 148.232 65.514 148.634 65.514C149.012 65.514 149.345 65.463 149.633 65.361C149.921 65.253 150.161 65.109 150.353 64.929C150.545 64.749 150.689 64.539 150.785 64.299C150.887 64.053 150.938 63.795 150.938 63.525C150.938 63.225 150.866 62.976 150.722 62.778C150.578 62.58 150.389 62.412 150.155 62.274C149.921 62.136 149.654 62.019 149.354 61.923C149.06 61.827 148.757 61.731 148.445 61.635C148.133 61.539 147.827 61.434 147.527 61.32C147.233 61.206 146.969 61.062 146.735 60.888C146.501 60.714 146.312 60.504 146.168 60.258C146.024 60.006 145.952 59.694 145.952 59.322C145.952 59.004 146.021 58.698 146.159 58.404C146.297 58.11 146.492 57.852 146.744 57.63C147.002 57.408 147.314 57.231 147.68 57.099C148.046 56.967 148.457 56.901 148.913 56.901C149.459 56.901 149.942 56.979 150.362 57.135C150.788 57.291 151.175 57.531 151.523 57.855L151.343 58.152ZM161.482 57.045V66H161.005C160.855 66 160.768 65.922 160.744 65.766L160.663 64.434C160.249 64.95 159.769 65.364 159.223 65.676C158.683 65.988 158.08 66.144 157.414 66.144C156.916 66.144 156.481 66.066 156.109 65.91C155.737 65.754 155.428 65.529 155.182 65.235C154.936 64.941 154.75 64.587 154.624 64.173C154.498 63.759 154.435 63.291 154.435 62.769V57.045H155.299V62.769C155.299 63.609 155.491 64.269 155.875 64.749C156.259 65.223 156.844 65.46 157.63 65.46C158.212 65.46 158.755 65.313 159.259 65.019C159.769 64.719 160.222 64.305 160.618 63.777V57.045H161.482ZM170.919 58.242C170.889 58.272 170.859 58.299 170.829 58.323C170.805 58.341 170.769 58.35 170.721 58.35C170.661 58.35 170.58 58.311 170.478 58.233C170.376 58.149 170.238 58.059 170.064 57.963C169.89 57.867 169.671 57.78 169.407 57.702C169.149 57.618 168.834 57.576 168.462 57.576C167.946 57.576 167.487 57.669 167.085 57.855C166.689 58.035 166.353 58.296 166.077 58.638C165.801 58.98 165.591 59.394 165.447 59.88C165.309 60.366 165.24 60.912 165.24 61.518C165.24 62.148 165.312 62.706 165.456 63.192C165.606 63.678 165.816 64.089 166.086 64.425C166.356 64.755 166.683 65.007 167.067 65.181C167.451 65.355 167.877 65.442 168.345 65.442C168.777 65.442 169.137 65.391 169.425 65.289C169.719 65.187 169.959 65.076 170.145 64.956C170.337 64.836 170.487 64.725 170.595 64.623C170.703 64.521 170.793 64.47 170.865 64.47C170.937 64.47 170.997 64.5 171.045 64.56L171.27 64.848C171.132 65.028 170.958 65.196 170.748 65.352C170.538 65.508 170.301 65.643 170.037 65.757C169.773 65.871 169.485 65.958 169.173 66.018C168.867 66.084 168.546 66.117 168.21 66.117C167.64 66.117 167.118 66.015 166.644 65.811C166.176 65.601 165.771 65.301 165.429 64.911C165.093 64.515 164.829 64.032 164.637 63.462C164.451 62.892 164.358 62.244 164.358 61.518C164.358 60.834 164.448 60.21 164.628 59.646C164.808 59.082 165.072 58.596 165.42 58.188C165.768 57.78 166.191 57.465 166.689 57.243C167.193 57.015 167.769 56.901 168.417 56.901C168.999 56.901 169.515 56.994 169.965 57.18C170.415 57.366 170.808 57.618 171.144 57.936L170.919 58.242ZM179.702 58.242C179.672 58.272 179.642 58.299 179.612 58.323C179.588 58.341 179.552 58.35 179.504 58.35C179.444 58.35 179.363 58.311 179.261 58.233C179.159 58.149 179.021 58.059 178.847 57.963C178.673 57.867 178.454 57.78 178.19 57.702C177.932 57.618 177.617 57.576 177.245 57.576C176.729 57.576 176.27 57.669 175.868 57.855C175.472 58.035 175.136 58.296 174.86 58.638C174.584 58.98 174.374 59.394 174.23 59.88C174.092 60.366 174.023 60.912 174.023 61.518C174.023 62.148 174.095 62.706 174.239 63.192C174.389 63.678 174.599 64.089 174.869 64.425C175.139 64.755 175.466 65.007 175.85 65.181C176.234 65.355 176.66 65.442 177.128 65.442C177.56 65.442 177.92 65.391 178.208 65.289C178.502 65.187 178.742 65.076 178.928 64.956C179.12 64.836 179.27 64.725 179.378 64.623C179.486 64.521 179.576 64.47 179.648 64.47C179.72 64.47 179.78 64.5 179.828 64.56L180.053 64.848C179.915 65.028 179.741 65.196 179.531 65.352C179.321 65.508 179.084 65.643 178.82 65.757C178.556 65.871 178.268 65.958 177.956 66.018C177.65 66.084 177.329 66.117 176.993 66.117C176.423 66.117 175.901 66.015 175.427 65.811C174.959 65.601 174.554 65.301 174.212 64.911C173.876 64.515 173.612 64.032 173.42 63.462C173.234 62.892 173.141 62.244 173.141 61.518C173.141 60.834 173.231 60.21 173.411 59.646C173.591 59.082 173.855 58.596 174.203 58.188C174.551 57.78 174.974 57.465 175.472 57.243C175.976 57.015 176.552 56.901 177.2 56.901C177.782 56.901 178.298 56.994 178.748 57.18C179.198 57.366 179.591 57.618 179.927 57.936L179.702 58.242ZM188.745 60.618C188.745 60.138 188.676 59.709 188.538 59.331C188.406 58.947 188.217 58.623 187.971 58.359C187.725 58.095 187.431 57.894 187.089 57.756C186.753 57.612 186.381 57.54 185.973 57.54C185.511 57.54 185.097 57.612 184.731 57.756C184.365 57.9 184.047 58.107 183.777 58.377C183.513 58.647 183.3 58.971 183.138 59.349C182.976 59.727 182.868 60.15 182.814 60.618H188.745ZM182.769 61.167V61.338C182.769 62.01 182.847 62.601 183.003 63.111C183.159 63.621 183.381 64.05 183.669 64.398C183.957 64.74 184.305 64.998 184.713 65.172C185.121 65.346 185.577 65.433 186.081 65.433C186.531 65.433 186.921 65.385 187.251 65.289C187.581 65.187 187.857 65.076 188.079 64.956C188.307 64.83 188.487 64.719 188.619 64.623C188.751 64.521 188.847 64.47 188.907 64.47C188.985 64.47 189.045 64.5 189.087 64.56L189.321 64.848C189.177 65.028 188.985 65.196 188.745 65.352C188.511 65.508 188.247 65.643 187.953 65.757C187.665 65.865 187.353 65.952 187.017 66.018C186.687 66.084 186.354 66.117 186.018 66.117C185.406 66.117 184.848 66.012 184.344 65.802C183.84 65.586 183.408 65.274 183.048 64.866C182.688 64.458 182.409 63.96 182.211 63.372C182.019 62.778 181.923 62.1 181.923 61.338C181.923 60.696 182.013 60.105 182.193 59.565C182.379 59.019 182.643 58.551 182.985 58.161C183.333 57.765 183.756 57.456 184.254 57.234C184.758 57.012 185.328 56.901 185.964 56.901C186.468 56.901 186.936 56.988 187.368 57.162C187.8 57.336 188.175 57.591 188.493 57.927C188.811 58.257 189.06 58.665 189.24 59.151C189.426 59.637 189.519 60.195 189.519 60.825C189.519 60.957 189.501 61.047 189.465 61.095C189.429 61.143 189.369 61.167 189.285 61.167H182.769ZM197.241 58.152C197.193 58.236 197.124 58.278 197.034 58.278C196.968 58.278 196.884 58.242 196.782 58.17C196.68 58.092 196.542 58.008 196.368 57.918C196.2 57.822 195.99 57.738 195.738 57.666C195.486 57.588 195.18 57.549 194.82 57.549C194.496 57.549 194.199 57.597 193.929 57.693C193.665 57.783 193.437 57.906 193.245 58.062C193.059 58.218 192.915 58.401 192.813 58.611C192.711 58.815 192.66 59.031 192.66 59.259C192.66 59.541 192.732 59.775 192.876 59.961C193.02 60.147 193.206 60.306 193.434 60.438C193.668 60.57 193.935 60.684 194.235 60.78C194.535 60.876 194.838 60.972 195.144 61.068C195.456 61.164 195.762 61.272 196.062 61.392C196.362 61.506 196.626 61.65 196.854 61.824C197.088 61.998 197.277 62.211 197.421 62.463C197.565 62.715 197.637 63.021 197.637 63.381C197.637 63.771 197.568 64.134 197.43 64.47C197.292 64.806 197.088 65.097 196.818 65.343C196.554 65.589 196.227 65.784 195.837 65.928C195.447 66.072 195 66.144 194.496 66.144C193.866 66.144 193.323 66.045 192.867 65.847C192.411 65.643 192.003 65.379 191.643 65.055L191.841 64.749C191.871 64.701 191.904 64.665 191.94 64.641C191.982 64.617 192.036 64.605 192.102 64.605C192.18 64.605 192.273 64.653 192.381 64.749C192.495 64.845 192.645 64.95 192.831 65.064C193.017 65.172 193.245 65.274 193.515 65.37C193.791 65.466 194.13 65.514 194.532 65.514C194.91 65.514 195.243 65.463 195.531 65.361C195.819 65.253 196.059 65.109 196.251 64.929C196.443 64.749 196.587 64.539 196.683 64.299C196.785 64.053 196.836 63.795 196.836 63.525C196.836 63.225 196.764 62.976 196.62 62.778C196.476 62.58 196.287 62.412 196.053 62.274C195.819 62.136 195.552 62.019 195.252 61.923C194.958 61.827 194.655 61.731 194.343 61.635C194.031 61.539 193.725 61.434 193.425 61.32C193.131 61.206 192.867 61.062 192.633 60.888C192.399 60.714 192.21 60.504 192.066 60.258C191.922 60.006 191.85 59.694 191.85 59.322C191.85 59.004 191.919 58.698 192.057 58.404C192.195 58.11 192.39 57.852 192.642 57.63C192.9 57.408 193.212 57.231 193.578 57.099C193.944 56.967 194.355 56.901 194.811 56.901C195.357 56.901 195.84 56.979 196.26 57.135C196.686 57.291 197.073 57.531 197.421 57.855L197.241 58.152ZM205.356 58.152C205.308 58.236 205.239 58.278 205.149 58.278C205.083 58.278 204.999 58.242 204.897 58.17C204.795 58.092 204.657 58.008 204.483 57.918C204.315 57.822 204.105 57.738 203.853 57.666C203.601 57.588 203.295 57.549 202.935 57.549C202.611 57.549 202.314 57.597 202.044 57.693C201.78 57.783 201.552 57.906 201.36 58.062C201.174 58.218 201.03 58.401 200.928 58.611C200.826 58.815 200.775 59.031 200.775 59.259C200.775 59.541 200.847 59.775 200.991 59.961C201.135 60.147 201.321 60.306 201.549 60.438C201.783 60.57 202.05 60.684 202.35 60.78C202.65 60.876 202.953 60.972 203.259 61.068C203.571 61.164 203.877 61.272 204.177 61.392C204.477 61.506 204.741 61.65 204.969 61.824C205.203 61.998 205.392 62.211 205.536 62.463C205.68 62.715 205.752 63.021 205.752 63.381C205.752 63.771 205.683 64.134 205.545 64.47C205.407 64.806 205.203 65.097 204.933 65.343C204.669 65.589 204.342 65.784 203.952 65.928C203.562 66.072 203.115 66.144 202.611 66.144C201.981 66.144 201.438 66.045 200.982 65.847C200.526 65.643 200.118 65.379 199.758 65.055L199.956 64.749C199.986 64.701 200.019 64.665 200.055 64.641C200.097 64.617 200.151 64.605 200.217 64.605C200.295 64.605 200.388 64.653 200.496 64.749C200.61 64.845 200.76 64.95 200.946 65.064C201.132 65.172 201.36 65.274 201.63 65.37C201.906 65.466 202.245 65.514 202.647 65.514C203.025 65.514 203.358 65.463 203.646 65.361C203.934 65.253 204.174 65.109 204.366 64.929C204.558 64.749 204.702 64.539 204.798 64.299C204.9 64.053 204.951 63.795 204.951 63.525C204.951 63.225 204.879 62.976 204.735 62.778C204.591 62.58 204.402 62.412 204.168 62.274C203.934 62.136 203.667 62.019 203.367 61.923C203.073 61.827 202.77 61.731 202.458 61.635C202.146 61.539 201.84 61.434 201.54 61.32C201.246 61.206 200.982 61.062 200.748 60.888C200.514 60.714 200.325 60.504 200.181 60.258C200.037 60.006 199.965 59.694 199.965 59.322C199.965 59.004 200.034 58.698 200.172 58.404C200.31 58.11 200.505 57.852 200.757 57.63C201.015 57.408 201.327 57.231 201.693 57.099C202.059 56.967 202.47 56.901 202.926 56.901C203.472 56.901 203.955 56.979 204.375 57.135C204.801 57.291 205.188 57.531 205.536 57.855L205.356 58.152ZM208.367 68.142C208.337 68.118 208.316 68.094 208.304 68.07C208.298 68.046 208.295 68.019 208.295 67.989C208.295 67.953 208.319 67.905 208.367 67.845C208.421 67.785 208.493 67.695 208.583 67.575C208.679 67.461 208.775 67.323 208.871 67.161C208.973 67.005 209.063 66.828 209.141 66.63C209.225 66.432 209.279 66.219 209.303 65.991C209.213 66.021 209.12 66.036 209.024 66.036C208.802 66.036 208.619 65.961 208.475 65.811C208.337 65.661 208.268 65.469 208.268 65.235C208.268 65.025 208.34 64.845 208.484 64.695C208.628 64.545 208.817 64.47 209.051 64.47C209.309 64.47 209.507 64.56 209.645 64.74C209.789 64.914 209.861 65.145 209.861 65.433C209.861 65.679 209.828 65.928 209.762 66.18C209.702 66.438 209.612 66.69 209.492 66.936C209.372 67.182 209.228 67.419 209.06 67.647C208.892 67.875 208.706 68.085 208.502 68.277L208.367 68.142ZM221.853 56.901C222.495 56.901 223.068 57.012 223.572 57.234C224.082 57.45 224.511 57.759 224.859 58.161C225.207 58.563 225.471 59.049 225.651 59.619C225.837 60.183 225.93 60.816 225.93 61.518C225.93 62.22 225.837 62.853 225.651 63.417C225.471 63.981 225.207 64.464 224.859 64.866C224.511 65.268 224.082 65.577 223.572 65.793C223.068 66.009 222.495 66.117 221.853 66.117C221.211 66.117 220.635 66.009 220.125 65.793C219.621 65.577 219.192 65.268 218.838 64.866C218.49 64.464 218.223 63.981 218.037 63.417C217.857 62.853 217.767 62.22 217.767 61.518C217.767 60.816 217.857 60.183 218.037 59.619C218.223 59.049 218.49 58.563 218.838 58.161C219.192 57.759 219.621 57.45 220.125 57.234C220.635 57.012 221.211 56.901 221.853 56.901ZM221.853 65.442C222.387 65.442 222.852 65.352 223.248 65.172C223.65 64.986 223.983 64.722 224.247 64.38C224.517 64.038 224.718 63.627 224.85 63.147C224.982 62.661 225.048 62.118 225.048 61.518C225.048 60.924 224.982 60.384 224.85 59.898C224.718 59.412 224.517 58.998 224.247 58.656C223.983 58.308 223.65 58.041 223.248 57.855C222.852 57.669 222.387 57.576 221.853 57.576C221.319 57.576 220.851 57.669 220.449 57.855C220.053 58.041 219.72 58.308 219.45 58.656C219.186 58.998 218.985 59.412 218.847 59.898C218.715 60.384 218.649 60.924 218.649 61.518C218.649 62.118 218.715 62.661 218.847 63.147C218.985 63.627 219.186 64.038 219.45 64.38C219.72 64.722 220.053 64.986 220.449 65.172C220.851 65.352 221.319 65.442 221.853 65.442ZM235.76 57.045V66H235.283C235.133 66 235.046 65.922 235.022 65.766L234.941 64.434C234.527 64.95 234.047 65.364 233.501 65.676C232.961 65.988 232.358 66.144 231.692 66.144C231.194 66.144 230.759 66.066 230.387 65.91C230.015 65.754 229.706 65.529 229.46 65.235C229.214 64.941 229.028 64.587 228.902 64.173C228.776 63.759 228.713 63.291 228.713 62.769V57.045H229.577V62.769C229.577 63.609 229.769 64.269 230.153 64.749C230.537 65.223 231.122 65.46 231.908 65.46C232.49 65.46 233.033 65.313 233.537 65.019C234.047 64.719 234.5 64.305 234.896 63.777V57.045H235.76ZM239.996 59.205C240.134 58.839 240.29 58.515 240.464 58.233C240.644 57.945 240.848 57.702 241.076 57.504C241.31 57.306 241.568 57.156 241.85 57.054C242.138 56.946 242.456 56.892 242.804 56.892C242.99 56.892 243.173 56.91 243.353 56.946C243.533 56.976 243.692 57.033 243.83 57.117L243.758 57.711C243.728 57.807 243.671 57.855 243.587 57.855C243.515 57.855 243.404 57.834 243.254 57.792C243.11 57.75 242.918 57.729 242.678 57.729C242.33 57.729 242.021 57.783 241.751 57.891C241.487 57.993 241.247 58.149 241.031 58.359C240.821 58.569 240.635 58.83 240.473 59.142C240.317 59.448 240.173 59.802 240.041 60.204V66H239.177V57.045H239.636C239.738 57.045 239.81 57.066 239.852 57.108C239.894 57.15 239.921 57.222 239.933 57.324L239.996 59.205ZM257.087 58.971C256.745 58.455 256.364 58.092 255.944 57.882C255.53 57.672 255.056 57.567 254.522 57.567C253.994 57.567 253.532 57.663 253.136 57.855C252.74 58.047 252.407 58.32 252.137 58.674C251.873 59.022 251.672 59.442 251.534 59.934C251.402 60.42 251.336 60.957 251.336 61.545C251.336 62.877 251.579 63.858 252.065 64.488C252.557 65.112 253.265 65.424 254.189 65.424C254.777 65.424 255.314 65.271 255.8 64.965C256.286 64.659 256.715 64.23 257.087 63.678V58.971ZM257.942 52.905V66H257.474C257.318 66 257.228 65.922 257.204 65.766L257.114 64.353C256.718 64.893 256.256 65.322 255.728 65.64C255.2 65.958 254.606 66.117 253.946 66.117C252.842 66.117 251.984 65.736 251.372 64.974C250.76 64.212 250.454 63.069 250.454 61.545C250.454 60.891 250.538 60.282 250.706 59.718C250.88 59.148 251.132 58.656 251.462 58.242C251.792 57.822 252.197 57.492 252.677 57.252C253.163 57.012 253.721 56.892 254.351 56.892C254.957 56.892 255.482 57.003 255.926 57.225C256.37 57.447 256.757 57.777 257.087 58.215V52.905H257.942ZM267.64 60.618C267.64 60.138 267.571 59.709 267.433 59.331C267.301 58.947 267.112 58.623 266.866 58.359C266.62 58.095 266.326 57.894 265.984 57.756C265.648 57.612 265.276 57.54 264.868 57.54C264.406 57.54 263.992 57.612 263.626 57.756C263.26 57.9 262.942 58.107 262.672 58.377C262.408 58.647 262.195 58.971 262.033 59.349C261.871 59.727 261.763 60.15 261.709 60.618H267.64ZM261.664 61.167V61.338C261.664 62.01 261.742 62.601 261.898 63.111C262.054 63.621 262.276 64.05 262.564 64.398C262.852 64.74 263.2 64.998 263.608 65.172C264.016 65.346 264.472 65.433 264.976 65.433C265.426 65.433 265.816 65.385 266.146 65.289C266.476 65.187 266.752 65.076 266.974 64.956C267.202 64.83 267.382 64.719 267.514 64.623C267.646 64.521 267.742 64.47 267.802 64.47C267.88 64.47 267.94 64.5 267.982 64.56L268.216 64.848C268.072 65.028 267.88 65.196 267.64 65.352C267.406 65.508 267.142 65.643 266.848 65.757C266.56 65.865 266.248 65.952 265.912 66.018C265.582 66.084 265.249 66.117 264.913 66.117C264.301 66.117 263.743 66.012 263.239 65.802C262.735 65.586 262.303 65.274 261.943 64.866C261.583 64.458 261.304 63.96 261.106 63.372C260.914 62.778 260.818 62.1 260.818 61.338C260.818 60.696 260.908 60.105 261.088 59.565C261.274 59.019 261.538 58.551 261.88 58.161C262.228 57.765 262.651 57.456 263.149 57.234C263.653 57.012 264.223 56.901 264.859 56.901C265.363 56.901 265.831 56.988 266.263 57.162C266.695 57.336 267.07 57.591 267.388 57.927C267.706 58.257 267.955 58.665 268.135 59.151C268.321 59.637 268.414 60.195 268.414 60.825C268.414 60.957 268.396 61.047 268.36 61.095C268.324 61.143 268.264 61.167 268.18 61.167H261.664ZM273.626 66.144C273.02 66.144 272.546 65.976 272.204 65.64C271.868 65.304 271.7 64.785 271.7 64.083V57.963H270.413C270.347 57.963 270.293 57.945 270.251 57.909C270.209 57.873 270.188 57.822 270.188 57.756V57.423L271.718 57.315L271.934 54.111C271.946 54.057 271.97 54.009 272.006 53.967C272.042 53.925 272.093 53.904 272.159 53.904H272.564V57.324H275.39V57.963H272.564V64.038C272.564 64.284 272.594 64.497 272.654 64.677C272.72 64.851 272.807 64.995 272.915 65.109C273.029 65.223 273.161 65.307 273.311 65.361C273.461 65.415 273.623 65.442 273.797 65.442C274.013 65.442 274.199 65.412 274.355 65.352C274.511 65.286 274.646 65.217 274.76 65.145C274.874 65.067 274.967 64.998 275.039 64.938C275.111 64.872 275.168 64.839 275.21 64.839C275.258 64.839 275.306 64.869 275.354 64.929L275.588 65.307C275.36 65.559 275.069 65.763 274.715 65.919C274.367 66.069 274.004 66.144 273.626 66.144ZM284.063 60.618C284.063 60.138 283.994 59.709 283.856 59.331C283.724 58.947 283.535 58.623 283.289 58.359C283.043 58.095 282.749 57.894 282.407 57.756C282.071 57.612 281.699 57.54 281.291 57.54C280.829 57.54 280.415 57.612 280.049 57.756C279.683 57.9 279.365 58.107 279.095 58.377C278.831 58.647 278.618 58.971 278.456 59.349C278.294 59.727 278.186 60.15 278.132 60.618H284.063ZM278.087 61.167V61.338C278.087 62.01 278.165 62.601 278.321 63.111C278.477 63.621 278.699 64.05 278.987 64.398C279.275 64.74 279.623 64.998 280.031 65.172C280.439 65.346 280.895 65.433 281.399 65.433C281.849 65.433 282.239 65.385 282.569 65.289C282.899 65.187 283.175 65.076 283.397 64.956C283.625 64.83 283.805 64.719 283.937 64.623C284.069 64.521 284.165 64.47 284.225 64.47C284.303 64.47 284.363 64.5 284.405 64.56L284.639 64.848C284.495 65.028 284.303 65.196 284.063 65.352C283.829 65.508 283.565 65.643 283.271 65.757C282.983 65.865 282.671 65.952 282.335 66.018C282.005 66.084 281.672 66.117 281.336 66.117C280.724 66.117 280.166 66.012 279.662 65.802C279.158 65.586 278.726 65.274 278.366 64.866C278.006 64.458 277.727 63.96 277.529 63.372C277.337 62.778 277.241 62.1 277.241 61.338C277.241 60.696 277.331 60.105 277.511 59.565C277.697 59.019 277.961 58.551 278.303 58.161C278.651 57.765 279.074 57.456 279.572 57.234C280.076 57.012 280.646 56.901 281.282 56.901C281.786 56.901 282.254 56.988 282.686 57.162C283.118 57.336 283.493 57.591 283.811 57.927C284.129 58.257 284.378 58.665 284.558 59.151C284.744 59.637 284.837 60.195 284.837 60.825C284.837 60.957 284.819 61.047 284.783 61.095C284.747 61.143 284.687 61.167 284.603 61.167H278.087ZM288.454 59.205C288.592 58.839 288.748 58.515 288.922 58.233C289.102 57.945 289.306 57.702 289.534 57.504C289.768 57.306 290.026 57.156 290.308 57.054C290.596 56.946 290.914 56.892 291.262 56.892C291.448 56.892 291.631 56.91 291.811 56.946C291.991 56.976 292.15 57.033 292.288 57.117L292.216 57.711C292.186 57.807 292.129 57.855 292.045 57.855C291.973 57.855 291.862 57.834 291.712 57.792C291.568 57.75 291.376 57.729 291.136 57.729C290.788 57.729 290.479 57.783 290.209 57.891C289.945 57.993 289.705 58.149 289.489 58.359C289.279 58.569 289.093 58.83 288.931 59.142C288.775 59.448 288.631 59.802 288.499 60.204V66H287.635V57.045H288.094C288.196 57.045 288.268 57.066 288.31 57.108C288.352 57.15 288.379 57.222 288.391 57.324L288.454 59.205ZM294.467 66V57.045H294.944C295.094 57.045 295.181 57.12 295.205 57.27L295.286 58.566C295.634 58.068 296.033 57.666 296.483 57.36C296.933 57.054 297.44 56.901 298.004 56.901C298.658 56.901 299.18 57.09 299.57 57.468C299.966 57.846 300.233 58.371 300.371 59.043C300.479 58.677 300.629 58.359 300.821 58.089C301.019 57.819 301.244 57.597 301.496 57.423C301.748 57.243 302.021 57.111 302.315 57.027C302.615 56.943 302.921 56.901 303.233 56.901C303.677 56.901 304.076 56.976 304.43 57.126C304.784 57.27 305.084 57.486 305.33 57.774C305.576 58.062 305.765 58.416 305.897 58.836C306.029 59.256 306.095 59.736 306.095 60.276V66H305.24V60.276C305.24 59.4 305.051 58.734 304.673 58.278C304.295 57.816 303.755 57.585 303.053 57.585C302.741 57.585 302.441 57.642 302.153 57.756C301.871 57.87 301.619 58.041 301.397 58.269C301.181 58.491 301.007 58.77 300.875 59.106C300.749 59.442 300.686 59.832 300.686 60.276V66H299.822V60.276C299.822 59.406 299.648 58.74 299.3 58.278C298.958 57.816 298.454 57.585 297.788 57.585C297.302 57.585 296.852 57.729 296.438 58.017C296.024 58.305 295.655 58.704 295.331 59.214V66H294.467ZM310.373 57.045V66H309.518V57.045H310.373ZM310.742 53.958C310.742 54.066 310.718 54.168 310.67 54.264C310.628 54.354 310.571 54.435 310.499 54.507C310.427 54.579 310.343 54.636 310.247 54.678C310.151 54.72 310.049 54.741 309.941 54.741C309.833 54.741 309.731 54.72 309.635 54.678C309.539 54.636 309.455 54.579 309.383 54.507C309.311 54.435 309.254 54.354 309.212 54.264C309.17 54.168 309.149 54.066 309.149 53.958C309.149 53.85 309.17 53.748 309.212 53.652C309.254 53.55 309.311 53.463 309.383 53.391C309.455 53.319 309.539 53.262 309.635 53.22C309.731 53.178 309.833 53.157 309.941 53.157C310.049 53.157 310.151 53.178 310.247 53.22C310.343 53.262 310.427 53.319 310.499 53.391C310.571 53.463 310.628 53.55 310.67 53.652C310.718 53.748 310.742 53.85 310.742 53.958ZM314.714 58.611C315.128 58.095 315.605 57.681 316.145 57.369C316.691 57.057 317.297 56.901 317.963 56.901C318.455 56.901 318.887 56.979 319.259 57.135C319.637 57.291 319.949 57.516 320.195 57.81C320.441 58.104 320.627 58.458 320.753 58.872C320.879 59.286 320.942 59.754 320.942 60.276V66H320.078V60.276C320.078 59.436 319.886 58.779 319.502 58.305C319.118 57.825 318.533 57.585 317.747 57.585C317.165 57.585 316.619 57.735 316.109 58.035C315.605 58.329 315.155 58.74 314.759 59.268V66H313.895V57.045H314.372C314.522 57.045 314.609 57.12 314.633 57.27L314.714 58.611ZM329.272 61.671C328.42 61.701 327.685 61.77 327.067 61.878C326.455 61.98 325.948 62.121 325.546 62.301C325.15 62.481 324.856 62.697 324.664 62.949C324.472 63.195 324.376 63.477 324.376 63.795C324.376 64.095 324.424 64.356 324.52 64.578C324.622 64.794 324.754 64.974 324.916 65.118C325.084 65.256 325.276 65.358 325.492 65.424C325.708 65.49 325.933 65.523 326.167 65.523C326.515 65.523 326.833 65.487 327.121 65.415C327.415 65.337 327.685 65.232 327.931 65.1C328.183 64.962 328.417 64.8 328.633 64.614C328.849 64.428 329.062 64.227 329.272 64.011V61.671ZM324.007 58.314C324.475 57.846 324.967 57.492 325.483 57.252C325.999 57.012 326.584 56.892 327.238 56.892C327.718 56.892 328.138 56.97 328.498 57.126C328.858 57.276 329.155 57.495 329.389 57.783C329.629 58.065 329.809 58.41 329.929 58.818C330.049 59.22 330.109 59.67 330.109 60.168V66H329.767C329.587 66 329.476 65.916 329.434 65.748L329.308 64.596C329.062 64.836 328.816 65.052 328.57 65.244C328.33 65.436 328.078 65.598 327.814 65.73C327.55 65.862 327.265 65.964 326.959 66.036C326.653 66.108 326.317 66.144 325.951 66.144C325.645 66.144 325.348 66.099 325.06 66.009C324.772 65.919 324.514 65.781 324.286 65.595C324.064 65.409 323.884 65.172 323.746 64.884C323.614 64.59 323.548 64.239 323.548 63.831C323.548 63.453 323.656 63.102 323.872 62.778C324.088 62.454 324.427 62.172 324.889 61.932C325.351 61.692 325.942 61.5 326.662 61.356C327.388 61.212 328.258 61.128 329.272 61.104V60.168C329.272 59.34 329.092 58.704 328.732 58.26C328.378 57.81 327.85 57.585 327.148 57.585C326.716 57.585 326.347 57.645 326.041 57.765C325.741 57.885 325.486 58.017 325.276 58.161C325.066 58.305 324.895 58.437 324.763 58.557C324.631 58.677 324.52 58.737 324.43 58.737C324.364 58.737 324.31 58.722 324.268 58.692C324.226 58.662 324.19 58.623 324.16 58.575L324.007 58.314ZM340.775 66H339.911V57.963H334.727V64.038C334.727 64.284 334.757 64.497 334.817 64.677C334.883 64.851 334.97 64.995 335.078 65.109C335.192 65.223 335.324 65.307 335.474 65.361C335.624 65.415 335.786 65.442 335.96 65.442C336.176 65.442 336.362 65.412 336.518 65.352C336.674 65.286 336.809 65.217 336.923 65.145C337.037 65.067 337.13 64.998 337.202 64.938C337.274 64.872 337.331 64.839 337.373 64.839C337.421 64.839 337.469 64.869 337.517 64.929L337.751 65.307C337.523 65.559 337.232 65.763 336.878 65.919C336.53 66.069 336.167 66.144 335.789 66.144C335.183 66.144 334.709 65.976 334.367 65.64C334.031 65.304 333.863 64.785 333.863 64.083V57.963H332.576C332.51 57.963 332.456 57.945 332.414 57.909C332.372 57.873 332.351 57.822 332.351 57.756V57.423L333.881 57.315L334.097 54.111C334.109 54.057 334.133 54.009 334.169 53.967C334.205 53.925 334.256 53.904 334.322 53.904H334.727V57.324H340.775V66ZM341.171 53.85C341.171 53.958 341.147 54.06 341.099 54.156C341.057 54.246 340.997 54.327 340.919 54.399C340.847 54.471 340.763 54.528 340.667 54.57C340.571 54.612 340.469 54.633 340.361 54.633C340.253 54.633 340.151 54.612 340.055 54.57C339.959 54.528 339.875 54.471 339.803 54.399C339.731 54.327 339.674 54.246 339.632 54.156C339.59 54.06 339.569 53.958 339.569 53.85C339.569 53.742 339.59 53.64 339.632 53.544C339.674 53.442 339.731 53.355 339.803 53.283C339.875 53.211 339.959 53.154 340.055 53.112C340.151 53.07 340.253 53.049 340.361 53.049C340.469 53.049 340.571 53.07 340.667 53.112C340.763 53.154 340.847 53.211 340.919 53.283C340.997 53.355 341.057 53.442 341.099 53.544C341.147 53.64 341.171 53.742 341.171 53.85ZM347.831 56.901C348.473 56.901 349.046 57.012 349.55 57.234C350.06 57.45 350.489 57.759 350.837 58.161C351.185 58.563 351.449 59.049 351.629 59.619C351.815 60.183 351.908 60.816 351.908 61.518C351.908 62.22 351.815 62.853 351.629 63.417C351.449 63.981 351.185 64.464 350.837 64.866C350.489 65.268 350.06 65.577 349.55 65.793C349.046 66.009 348.473 66.117 347.831 66.117C347.189 66.117 346.613 66.009 346.103 65.793C345.599 65.577 345.17 65.268 344.816 64.866C344.468 64.464 344.201 63.981 344.015 63.417C343.835 62.853 343.745 62.22 343.745 61.518C343.745 60.816 343.835 60.183 344.015 59.619C344.201 59.049 344.468 58.563 344.816 58.161C345.17 57.759 345.599 57.45 346.103 57.234C346.613 57.012 347.189 56.901 347.831 56.901ZM347.831 65.442C348.365 65.442 348.83 65.352 349.226 65.172C349.628 64.986 349.961 64.722 350.225 64.38C350.495 64.038 350.696 63.627 350.828 63.147C350.96 62.661 351.026 62.118 351.026 61.518C351.026 60.924 350.96 60.384 350.828 59.898C350.696 59.412 350.495 58.998 350.225 58.656C349.961 58.308 349.628 58.041 349.226 57.855C348.83 57.669 348.365 57.576 347.831 57.576C347.297 57.576 346.829 57.669 346.427 57.855C346.031 58.041 345.698 58.308 345.428 58.656C345.164 58.998 344.963 59.412 344.825 59.898C344.693 60.384 344.627 60.924 344.627 61.518C344.627 62.118 344.693 62.661 344.825 63.147C344.963 63.627 345.164 64.038 345.428 64.38C345.698 64.722 346.031 64.986 346.427 65.172C346.829 65.352 347.297 65.442 347.831 65.442ZM355.609 58.611C356.023 58.095 356.5 57.681 357.04 57.369C357.586 57.057 358.192 56.901 358.858 56.901C359.35 56.901 359.782 56.979 360.154 57.135C360.532 57.291 360.844 57.516 361.09 57.81C361.336 58.104 361.522 58.458 361.648 58.872C361.774 59.286 361.837 59.754 361.837 60.276V66H360.973V60.276C360.973 59.436 360.781 58.779 360.397 58.305C360.013 57.825 359.428 57.585 358.642 57.585C358.06 57.585 357.514 57.735 357.004 58.035C356.5 58.329 356.05 58.74 355.654 59.268V66H354.79V57.045H355.267C355.417 57.045 355.504 57.12 355.528 57.27L355.609 58.611Z" fill="white"/>
<path d="M16.3647 16.586H65.9001V66.1213H16.3647V16.586Z" fill="#FFF037"/>
<path d="M6.13013 41.3782L41.1569 6.35138L76.1837 41.3782L41.1569 76.405L6.13013 41.3782Z" fill="#FFF037"/>
<path d="M10.7464 23.801L58.5939 10.9803L71.4146 58.8278L23.5671 71.6485L10.7464 23.801Z" fill="#FFF037"/>
<path d="M7.27724 50.3974L32.0449 7.49848L74.9438 32.2662L50.1761 75.1651L7.27724 50.3974Z" fill="#FFF037"/>
<path d="M7.24886 32.2623L50.1478 7.49463L74.9155 50.3935L32.0166 75.1612L7.24886 32.2623Z" fill="#FFF037"/>
<path d="M10.7816 58.8503L23.6023 11.0028L71.4498 23.8235L58.6291 71.671L10.7816 58.8503Z" fill="#FFF037"/>
<path d="M61.5 61.5C72.8218 50.1782 72.8218 31.8218 61.5 20.5C50.1782 9.17817 31.8218 9.17817 20.5 20.5C9.17816 31.8218 9.17817 50.1782 20.5 61.5C31.8218 72.8218 50.1782 72.8218 61.5 61.5Z" fill="#FF9B40"/>
<path d="M6.19446 62.19C6.99931 60.7614 8.50482 58.5648 10.9661 57.2075C11.789 56.769 12.6486 56.4021 13.5352 56.111C14.7443 55.709 15.9956 55.4453 17.2648 55.3252C19.0614 55.1216 19.5572 55.2966 19.8878 55.4717C20.4365 55.7806 20.8766 56.2493 21.149 56.8146C21.5837 57.6111 22.1982 59.2541 21.0555 64.3366C20.8113 65.5463 20.4896 66.7393 20.0926 67.9083C18.3751 72.873 15.5042 76.6805 15.5509 76.709C21.4544 70.3014 23.8151 65.7725 23.8151 65.7725C25.0187 63.4509 25.6116 62.29 26.111 60.8935C26.9698 58.4326 28.4178 54.3001 28.6478 52.7036C28.7031 52.2177 28.8879 51.7553 29.1832 51.3642C29.3832 51.1634 29.5943 50.9738 29.8155 50.7963L29.9916 50.6606C30.3509 50.4177 31.0372 49.8462 31.1845 49.7248C31.6843 49.2714 32.1195 48.7523 32.478 48.1818C32.7887 47.7478 33.065 47.2904 33.3044 46.8138C33.6997 46.0174 33.7033 45.7423 34.1596 44.5958C34.3551 44.0761 34.5806 43.5681 34.8351 43.0743C35.3171 42.2448 35.9026 41.4791 36.5778 40.7955C37.3172 39.977 38.098 39.1961 38.9169 38.4561C37.4682 39.017 36.151 39.868 35.0471 40.9562C34.5478 41.4487 34.0978 41.9882 33.7033 42.5671C33.4015 43.1028 32.9451 43.885 32.3487 44.803C31.8208 45.6483 31.2463 46.4639 30.6276 47.246C28.3424 49.8641 24.1887 51.4285 23.7719 51.5821C21.9323 52.2571 20.3118 52.8179 18.2421 52.975C16.9291 53.0727 15.6324 53.3257 14.3796 53.7287C12.5973 54.2176 10.9442 55.088 9.53605 56.2789C7.83192 57.8567 6.66405 59.9226 6.19446 62.19Z" fill="#065D62"/>
<path d="M22.0948 49.978C24.2584 49.978 26.0123 48.2241 26.0123 46.0606C26.0123 43.897 24.2584 42.1431 22.0948 42.1431C19.9313 42.1431 18.1774 43.897 18.1774 46.0606C18.1774 48.2241 19.9313 49.978 22.0948 49.978Z" fill="#065D62"/>
<path d="M32.0037 39.5598C33.1138 37.5534 35.1909 34.5312 38.5859 32.6463C39.7216 32.0394 40.9078 31.532 42.1313 31.1299C43.7989 30.5687 45.5257 30.2014 47.2775 30.0354C49.7342 29.7493 50.4397 29.9925 50.8981 30.2357C51.6538 30.6665 52.2607 31.3163 52.6386 32.0991C53.2366 33.2007 54.071 35.4825 52.5096 42.5284C52.1708 44.1986 51.727 45.8459 51.181 47.4604C48.8138 54.3417 44.8494 59.6208 44.9139 59.6565C53.0683 50.7688 56.3093 44.4955 56.3093 44.4955C57.9674 41.2766 58.7982 39.6671 59.4715 37.7322C60.6605 34.3201 62.6552 28.5941 62.9739 26.3766C62.9739 26.2443 63.153 25.1033 63.7116 24.5204C63.989 24.2431 64.2807 23.9804 64.5855 23.7335C64.7036 23.6405 64.7896 23.5761 64.8326 23.5475C65.316 23.1899 66.265 22.4173 66.4763 22.2457C67.1735 21.628 67.7842 20.9194 68.292 20.1391C68.7191 19.5369 69.0998 18.9032 69.4308 18.2435C69.9788 17.1383 69.9788 16.7592 70.6126 15.1676C70.8791 14.4475 71.1888 13.744 71.5402 13.0611C71.8123 12.5496 72.3101 11.7163 73.9467 9.89937C74.9651 8.76399 76.0409 7.68127 77.1698 6.65543C75.1723 7.4307 73.3551 8.60654 71.8302 10.1104C71.1419 10.7935 70.5208 11.5408 69.9752 12.3422C69.5598 13.0897 68.933 14.1734 68.1094 15.4466C67.379 16.6171 66.5864 17.7478 65.735 18.8336C62.58 22.4603 56.8465 24.6312 56.2735 24.8423C53.738 25.7793 51.4997 26.5554 48.6455 26.77C46.8331 26.9099 45.0434 27.2616 43.3131 27.818C41.8806 28.2793 39.1088 29.1341 36.6306 31.3552C33.4648 34.1878 32.394 37.7787 32.0037 39.5598Z" fill="#065D62"/>
<path d="M54.5306 23.06C57.585 23.06 60.0611 20.5841 60.0611 17.53C60.0611 14.4759 57.585 12 54.5306 12C51.4761 12 49 14.4759 49 17.53C49 20.5841 51.4761 23.06 54.5306 23.06Z" fill="#065D62"/>
</svg>
