<svg width="40" height="40" viewBox="0 0 40 40" fill="none" xmlns="http://www.w3.org/2000/svg">
<path d="M29.1478 25.4028L29.8115 20.3676H24.7301V17.1532C24.7301 15.6971 25.1416 14.7046 27.2734 14.7046H30V10.2008C28.6853 10.0623 27.3638 9.99537 26.0416 10.0002C22.123 10.0002 19.4416 12.3446 19.4416 16.6557V20.3676H15V25.4028H19.431V38C21.2315 37.9883 23.0205 37.7171 24.7407 37.1951V25.4028H29.1478Z" fill="white"/>
<path d="M38 19.9974C38.0005 23.5576 36.9453 27.0379 34.9677 29.9984C32.9902 32.9588 30.1791 35.2663 26.8901 36.6291C23.6011 37.9919 19.9818 38.3487 16.49 37.6544C12.9981 36.9602 9.79061 35.2461 7.273 32.7288C4.7554 30.2116 3.04081 27.0043 2.34606 23.5126C1.65132 20.0208 2.00763 16.4015 3.36993 13.1123C4.73223 9.82307 7.03933 7.01171 9.99947 5.03373C12.9596 3.05575 16.4398 2 20 2C24.7732 2.00069 29.3508 3.89697 32.7262 7.27192C36.1017 10.6469 37.9986 15.2242 38 19.9974V19.9974Z" stroke="white" stroke-width="3" stroke-miterlimit="10"/>
</svg>
