<svg width="82" height="82" viewBox="0 0 82 82" fill="none" xmlns="http://www.w3.org/2000/svg">
<path d="M16.3647 16.586H65.9001V66.1213H16.3647V16.586Z" fill="#FFF037"/>
<path d="M6.13013 41.3782L41.1569 6.35138L76.1837 41.3782L41.1569 76.405L6.13013 41.3782Z" fill="#FFF037"/>
<path d="M10.7464 23.801L58.5939 10.9803L71.4146 58.8278L23.5671 71.6485L10.7464 23.801Z" fill="#FFF037"/>
<path d="M7.27724 50.3974L32.0449 7.49848L74.9438 32.2662L50.1761 75.1651L7.27724 50.3974Z" fill="#FFF037"/>
<path d="M7.24886 32.2623L50.1478 7.49463L74.9155 50.3935L32.0166 75.1612L7.24886 32.2623Z" fill="#FFF037"/>
<path d="M10.7816 58.8503L23.6023 11.0028L71.4498 23.8235L58.6291 71.671L10.7816 58.8503Z" fill="#FFF037"/>
<path d="M61.5 61.5C72.8218 50.1782 72.8218 31.8218 61.5 20.5C50.1782 9.17817 31.8218 9.17817 20.5 20.5C9.17816 31.8218 9.17817 50.1782 20.5 61.5C31.8218 72.8218 50.1782 72.8218 61.5 61.5Z" fill="#FF9B40"/>
<path d="M6.19446 62.19C6.99931 60.7614 8.50482 58.5648 10.9661 57.2075C11.789 56.769 12.6486 56.4021 13.5352 56.111C14.7443 55.709 15.9956 55.4453 17.2648 55.3252C19.0614 55.1216 19.5572 55.2966 19.8878 55.4717C20.4365 55.7806 20.8766 56.2493 21.149 56.8146C21.5837 57.6111 22.1982 59.2541 21.0555 64.3366C20.8113 65.5463 20.4896 66.7393 20.0926 67.9083C18.3751 72.873 15.5042 76.6805 15.5509 76.709C21.4544 70.3014 23.8151 65.7725 23.8151 65.7725C25.0187 63.4509 25.6116 62.29 26.111 60.8935C26.9698 58.4326 28.4178 54.3001 28.6478 52.7036C28.7031 52.2177 28.8879 51.7553 29.1832 51.3642C29.3832 51.1634 29.5943 50.9738 29.8155 50.7963L29.9916 50.6606C30.3509 50.4177 31.0372 49.8462 31.1845 49.7248C31.6843 49.2714 32.1195 48.7523 32.478 48.1818C32.7887 47.7478 33.065 47.2904 33.3044 46.8138C33.6997 46.0174 33.7033 45.7423 34.1596 44.5958C34.3551 44.0761 34.5806 43.5681 34.8351 43.0743C35.3171 42.2448 35.9026 41.4791 36.5778 40.7955C37.3172 39.977 38.098 39.1961 38.9169 38.4561C37.4682 39.017 36.151 39.868 35.0471 40.9562C34.5478 41.4487 34.0978 41.9882 33.7033 42.5671C33.4015 43.1028 32.9451 43.885 32.3487 44.803C31.8208 45.6483 31.2463 46.4639 30.6276 47.246C28.3424 49.8641 24.1887 51.4285 23.7719 51.5821C21.9323 52.2571 20.3118 52.8179 18.2421 52.975C16.9291 53.0727 15.6324 53.3257 14.3796 53.7287C12.5973 54.2176 10.9442 55.088 9.53605 56.2789C7.83192 57.8567 6.66405 59.9226 6.19446 62.19Z" fill="#065D62"/>
<path d="M22.0948 49.978C24.2584 49.978 26.0123 48.2241 26.0123 46.0606C26.0123 43.897 24.2584 42.1431 22.0948 42.1431C19.9313 42.1431 18.1774 43.897 18.1774 46.0606C18.1774 48.2241 19.9313 49.978 22.0948 49.978Z" fill="#065D62"/>
<path d="M32.0037 39.5598C33.1138 37.5534 35.1909 34.5312 38.5859 32.6463C39.7216 32.0394 40.9078 31.532 42.1313 31.1299C43.7989 30.5687 45.5257 30.2014 47.2775 30.0354C49.7342 29.7493 50.4397 29.9925 50.8981 30.2357C51.6538 30.6665 52.2607 31.3163 52.6386 32.0991C53.2366 33.2007 54.071 35.4825 52.5096 42.5284C52.1708 44.1986 51.727 45.8459 51.181 47.4604C48.8138 54.3417 44.8494 59.6208 44.9139 59.6565C53.0683 50.7688 56.3093 44.4955 56.3093 44.4955C57.9674 41.2766 58.7982 39.6671 59.4715 37.7322C60.6605 34.3201 62.6552 28.5941 62.9739 26.3766C62.9739 26.2443 63.153 25.1033 63.7116 24.5204C63.989 24.2431 64.2807 23.9804 64.5855 23.7335C64.7036 23.6405 64.7896 23.5761 64.8326 23.5475C65.316 23.1899 66.265 22.4173 66.4763 22.2457C67.1735 21.628 67.7842 20.9194 68.292 20.1391C68.7191 19.5369 69.0998 18.9032 69.4308 18.2435C69.9788 17.1383 69.9788 16.7592 70.6126 15.1676C70.8791 14.4475 71.1888 13.744 71.5402 13.0611C71.8123 12.5496 72.3101 11.7163 73.9467 9.89937C74.9651 8.76399 76.0409 7.68127 77.1698 6.65543C75.1723 7.4307 73.3551 8.60654 71.8302 10.1104C71.1419 10.7935 70.5208 11.5408 69.9752 12.3422C69.5598 13.0897 68.933 14.1734 68.1094 15.4466C67.379 16.6171 66.5864 17.7478 65.735 18.8336C62.58 22.4603 56.8465 24.6312 56.2735 24.8423C53.738 25.7793 51.4997 26.5554 48.6455 26.77C46.8331 26.9099 45.0434 27.2616 43.3131 27.818C41.8806 28.2793 39.1088 29.1341 36.6306 31.3552C33.4648 34.1878 32.394 37.7787 32.0037 39.5598Z" fill="#065D62"/>
<path d="M54.5306 23.06C57.585 23.06 60.0611 20.5841 60.0611 17.53C60.0611 14.4759 57.585 12 54.5306 12C51.4761 12 49 14.4759 49 17.53C49 20.5841 51.4761 23.06 54.5306 23.06Z" fill="#065D62"/>
</svg>
