<svg width="10" height="13" viewBox="0 0 10 13" fill="none" xmlns="http://www.w3.org/2000/svg">
<path d="M9.07075 1.363H5.71375C6.13375 1.585 6.44875 1.858 6.65875 2.182C6.87475 2.506 7.01575 2.875 7.08175 3.289H9.07075V4.54H7.06375C6.94375 5.194 6.64075 5.761 6.15475 6.241C5.67475 6.721 5.03575 7.066 4.23775 7.276C4.49575 7.414 4.71775 7.615 4.90375 7.879L8.66575 13H7.10875C6.79675 13 6.56575 12.877 6.41575 12.631L3.06775 8.023C2.96575 7.879 2.85475 7.777 2.73475 7.717C2.62075 7.651 2.44075 7.618 2.19475 7.618H0.68275V6.412H2.37475C3.22075 6.412 3.89575 6.241 4.39975 5.899C4.90975 5.557 5.23975 5.104 5.38975 4.54H0.66475V3.289H5.42575C5.31175 2.689 5.00575 2.227 4.50775 1.903C4.00975 1.573 3.32275 1.408 2.44675 1.408H0.68275V0.102999H9.07075V1.363Z" fill="#2B2B2B"/>
</svg>
